<svg width="28" height="28" viewBox="0 0 28 28" fill="none" xmlns="http://www.w3.org/2000/svg">
<rect x="1" y="1" width="26" height="26" rx="13" stroke="black" stroke-width="2"/>
<path d="M19.9111 12.6888C20.4634 12.6888 20.9111 13.1366 20.9111 13.6888C20.9111 14.2411 20.4634 14.6888 19.9111 14.6888V12.6888ZM6.75957 14.3959C6.36904 14.0054 6.36904 13.3723 6.75957 12.9817L13.1235 6.61777C13.5141 6.22725 14.1472 6.22725 14.5377 6.61777C14.9283 7.0083 14.9283 7.64146 14.5377 8.03199L8.88089 13.6888L14.5377 19.3457C14.9283 19.7362 14.9283 20.3694 14.5377 20.7599C14.1472 21.1504 13.5141 21.1504 13.1235 20.7599L6.75957 14.3959ZM19.9111 14.6888H7.46667V12.6888H19.9111V14.6888Z" fill="black"/>
</svg>
